<?xml version="1.0" encoding="UTF-8" standalone="no"?>
<svg
   class="icon icon-tabler icon-tabler-brand-github"
   width="800px"
   height="800px"
   viewBox="0 0 256 256"
   stroke-width="2"
   stroke="currentColor"
   fill="currentColor"
   stroke-linecap="round"
   stroke-linejoin="round"
   version="1.1"
   id="svg2"
   sodipodi:docname="brand-insta.svg"
   inkscape:version="1.3.2 (091e20ef0f, 2023-11-25)"
   xmlns:inkscape="http://www.inkscape.org/namespaces/inkscape"
   xmlns:sodipodi="http://sodipodi.sourceforge.net/DTD/sodipodi-0.dtd"
   xmlns="http://www.w3.org/2000/svg"
   xmlns:svg="http://www.w3.org/2000/svg">
  <defs
     id="defs2" />
  <sodipodi:namedview
     id="namedview2"
     pagecolor="#ffffff"
     bordercolor="#000000"
     borderopacity="0.25"
     inkscape:showpageshadow="2"
     inkscape:pageopacity="0.0"
     inkscape:pagecheckerboard="0"
     inkscape:deskcolor="#d1d1d1"
     inkscape:zoom="1.03875"
     inkscape:cx="400"
     inkscape:cy="400"
     inkscape:window-width="1899"
     inkscape:window-height="1029"
     inkscape:window-x="10"
     inkscape:window-y="43"
     inkscape:window-maximized="1"
     inkscape:current-layer="svg2" />
  <path
     d="M128,84a44,44,0,1,0,44,44A44.04978,44.04978,0,0,0,128,84Zm0,80a36,36,0,1,1,36-36A36.04061,36.04061,0,0,1,128,164ZM172,32H84A52.059,52.059,0,0,0,32,84v88a52.059,52.059,0,0,0,52,52h88a52.059,52.059,0,0,0,52-52V84A52.059,52.059,0,0,0,172,32Zm44,140a44.04978,44.04978,0,0,1-44,44H84a44.04978,44.04978,0,0,1-44-44V84A44.04978,44.04978,0,0,1,84,40h88a44.04978,44.04978,0,0,1,44,44ZM188,76a8,8,0,1,1-8-8A8.00917,8.00917,0,0,1,188,76Z"
     id="path2" />
</svg>
