<!DOCTYPE svg PUBLIC "-//W3C//DTD SVG 1.1//EN" "http://www.w3.org/Graphics/SVG/1.1/DTD/svg11.dtd">
<!-- Uploaded to: SVG Repo, www.svgrepo.com, Transformed by: SVG Repo Mixer Tools -->
<svg width="800px" height="800px" viewBox="0 0 48 48" xmlns="http://www.w3.org/2000/svg" fill="currentColor" style="--darkreader-inline-fill: currentColor;" data-darkreader-inline-fill="">
<g id="SVGRepo_bgCarrier" stroke-width="0"/>
<g id="SVGRepo_tracerCarrier" stroke-linecap="round" stroke-linejoin="round" stroke="#CCCCCC" stroke-width="1.344" style="--darkreader-inline-stroke: #c8c3bc;" data-darkreader-inline-stroke="">
<defs>
<style>.a{fill:none;stroke:currentColor;stroke-linecap:round;stroke-linejoin:round;}</style>
<style class="darkreader darkreader--sync" media="screen"/>
</defs>
<path class="a" d="M17,44.23s5.36-22.32,5.89-23.72C17.77,21,19.41,33,25.21,34.31c4.91,1.15,10.35-4.54,10.27-10.85S31.69,14,27,12.69,14.85,13,12.87,19.56a10.53,10.53,0,0,0,3,11.47"/>
<path class="a" d="M24,2.5A21.5,21.5,0,1,0,45.5,24,21.51,21.51,0,0,0,24,2.5Z"/>
</g>
<g id="SVGRepo_iconCarrier">
<defs>
<style>.a{fill:none;stroke:currentColor;stroke-linecap:round;stroke-linejoin:round;}</style>
<style class="darkreader darkreader--sync" media="screen"/>
</defs>
<path class="a" d="M17,44.23s5.36-22.32,5.89-23.72C17.77,21,19.41,33,25.21,34.31c4.91,1.15,10.35-4.54,10.27-10.85S31.69,14,27,12.69,14.85,13,12.87,19.56a10.53,10.53,0,0,0,3,11.47"/>
<path class="a" d="M24,2.5A21.5,21.5,0,1,0,45.5,24,21.51,21.51,0,0,0,24,2.5Z"/>
</g>
</svg>
